<svg width="16" height="22" viewBox="0 0 16 22" fill="none" xmlns="http://www.w3.org/2000/svg">
<path d="M15.5362 5.47559C15.4579 5.18209 15.2989 4.86937 15.1812 4.59556C13.7735 1.21244 10.6976 0 8.214 0C4.88924 0 1.22741 2.2294 0.738525 6.8247V7.76355C0.738525 7.80273 0.752029 8.15469 0.77121 8.33075C1.04527 10.5208 2.77335 12.8483 4.06395 15.0383C5.45245 17.3846 6.89322 19.6928 8.32065 22C9.20083 20.4944 10.0778 18.9689 10.938 17.5023C11.1724 17.0719 11.4445 16.6417 11.6792 16.2309C11.8356 15.9573 12.1344 15.6838 12.2709 15.4293C13.6594 12.8872 15.8942 10.3255 15.8942 7.80268V6.76629C15.8943 6.4928 15.5553 5.53456 15.5362 5.47559ZM8.27487 10.1886C7.29756 10.1886 6.22782 9.69991 5.69981 8.35034C5.62114 8.13551 5.62748 7.70498 5.62748 7.66555V7.05933C5.62748 5.33887 7.08831 4.55649 8.35916 4.55649C9.92372 4.55649 11.1338 5.80821 11.1338 7.37277C11.1338 8.93727 9.83943 10.1886 8.27487 10.1886Z" fill="#F9D500"/>
</svg>
