<svg width="111" height="56" viewBox="0 0 111 56" fill="none" xmlns="http://www.w3.org/2000/svg">
<g clip-path="url(#clip0_1_531)">
<path d="M7.22964 54.337H2.85296L2.06934 55.8926H0L3.773 48.5817H6.30961L10.0826 55.8926H8.00456L7.22964 54.337ZM6.53019 52.9381L5.05872 49.9661L3.56403 52.9352L6.53019 52.9381Z" fill="#074734"/>
<path d="M12.0243 53.3763C12.0243 54.1483 12.6511 54.5024 15.0339 54.5024C17.0075 54.5024 17.6025 54.2847 17.6025 53.7101C17.6025 53.1354 17.1845 52.999 14.8134 52.8858C11.6208 52.7378 10.3641 52.2357 10.3641 50.5959C10.3641 48.9561 12.0039 48.4772 14.7408 48.4772C17.4777 48.4772 19.1697 49.1651 19.1697 50.9732H17.289C17.289 50.1693 16.4851 49.969 14.5318 49.969C12.6831 49.969 12.2448 50.1461 12.2448 50.6917C12.2448 51.2373 12.6831 51.3592 14.8134 51.484C17.6983 51.6407 19.4832 51.7975 19.4832 53.6462C19.4832 55.5995 17.6344 55.9971 14.9295 55.9971C11.9314 55.9971 10.1436 55.4863 10.1436 53.385L12.0243 53.3763Z" fill="#074734"/>
<path d="M25.9321 51.8294L30.361 55.8926H27.7489L24.5419 52.8684L22.2984 54.5082V55.9071H20.4177V48.5817H22.2984V52.3721L27.5226 48.5817H30.3726L25.9321 51.8294Z" fill="#074734"/>
<path d="M38.1247 54.337H33.7481L32.9644 55.8926H30.8893L34.6623 48.5817H37.2018L40.9748 55.8926H38.8938L38.1247 54.337ZM37.4253 52.9381L35.9422 49.9661L34.4475 52.9352L37.4253 52.9381Z" fill="#074734"/>
<path d="M48.6572 53.7217L50.0067 55.8926H47.7894L46.611 53.9394H43.581V55.8926H41.7003V48.5817H47.4469C49.107 48.5817 50.2447 49.6352 50.2447 51.2663C50.2723 51.7906 50.1337 52.3103 49.8487 52.7512C49.5636 53.1921 49.1466 53.5317 48.6572 53.7217ZM43.581 52.3634H46.9245C47.4875 52.3634 48.3756 52.3634 48.3756 51.2663C48.3756 50.1693 47.5049 50.1577 46.9245 50.1577H43.581V52.3634Z" fill="#074734"/>
<path d="M63.4618 54.337H59.0851L58.3015 55.8926H56.2322L60.0052 48.5817H62.5418L66.3148 55.8926H64.2338L63.4618 54.337ZM62.7624 52.9381L61.2793 49.9661L59.7846 52.9352L62.7624 52.9381Z" fill="#074734"/>
<path d="M74.5573 54.3196V55.8955H67.0375V48.5817H68.9095V54.3196H74.5573Z" fill="#074734"/>
<path d="M82.5503 54.337H78.1968L77.4132 55.8926H75.3439L79.1169 48.5817H81.6535L85.4265 55.8926H83.3484L82.5503 54.337ZM81.8508 52.9381L80.3794 49.9661L78.8847 52.9352L81.8508 52.9381Z" fill="#074734"/>
<path d="M93.0509 50.1577H89.5159V55.8926H87.6352V50.1577H84.0682V48.5817H93.0509V50.1577Z" fill="#074734"/>
<path d="M98.9019 54.337H94.5252L93.7416 55.8926H91.6752L95.4482 48.5817H97.9877L101.761 55.8926H99.6739L98.9019 54.337ZM98.2025 52.9381L96.7194 49.9661L95.2247 52.9352L98.2025 52.9381Z" fill="#074734"/>
<path d="M106.364 55.9971C103.145 55.9971 101.766 54.7752 101.766 52.2241V48.5817H103.647V52.227C103.647 53.2515 103.937 54.4211 106.364 54.4211C108.79 54.4211 109.08 53.2399 109.08 52.227V48.5817H110.961V52.227C110.961 54.7636 109.571 55.9971 106.364 55.9971Z" fill="#074734"/>
<path d="M61.4157 0L47.2902 38.0086H64.0045L67.0287 29.8938H72.8188L61.4157 0Z" fill="#074734"/>
<path d="M92.2092 38.0086H75.492L61.4158 0H78.1302L92.2092 38.0086Z" fill="#074734"/>
<path d="M31.8268 3.69173L19.1176 38.0086H35.8348L38.859 29.8938H41.5321L31.8268 3.69173Z" fill="#F9D500"/>
<path d="M64.0394 38.0086H47.3221L33.243 0H49.9603L64.0394 38.0086Z" fill="#F9D500"/>
</g>
<defs>
<clipPath id="clip0_1_531">
<rect width="110.961" height="56" fill="white"/>
</clipPath>
</defs>
</svg>
