<svg width="94" height="94" viewBox="0 0 94 94" fill="none" xmlns="http://www.w3.org/2000/svg">
<circle cx="47" cy="47" r="47" fill="#F9D500"/>
<g clip-path="url(#clip0_5_2)">
<path fill-rule="evenodd" clip-rule="evenodd" d="M58.8828 70.8624C58.3453 72.4545 57.214 73.6776 55.8201 74.3679C54.4815 75.0309 52.9 75.2025 51.368 74.7384L28.9718 67.1795C27.3798 66.6419 26.1566 65.5107 25.4659 64.1167C24.7765 62.724 24.6183 61.0686 25.155 59.4799L34.0047 33.2699C34.4398 31.9813 35.2719 30.8966 36.4057 30.1463L47.048 21.2819C47.7345 20.681 48.8809 20.2304 49.7759 20.0818C50.7578 19.9182 51.7662 20.0013 52.7069 20.3181L60.7078 23.0024C61.7744 23.3628 62.6753 23.9893 63.361 24.7824C64.0601 25.5914 64.5359 26.5745 64.7365 27.6253L67.8265 41.1293C67.9851 41.7134 68.051 42.3068 68.033 42.8934C68.0141 43.5035 67.9058 44.0952 67.7174 44.6512L66.3084 48.828C67.2256 49.1377 68.208 49.4138 69.265 49.6492C69.8445 49.7772 70.2104 50.3504 70.082 50.9299C69.9544 51.5093 69.3808 51.8757 68.8013 51.7477C67.6675 51.4951 66.6105 51.1988 65.6215 50.8665L58.8828 70.8624ZM41.2036 57.561C41.2036 57.0692 40.9393 56.6983 40.4739 56.541L34.8808 54.6586C34.3177 54.4702 33.7084 54.774 33.5196 55.3371C33.3312 55.8998 33.635 56.5095 34.1981 56.6979L39.7597 58.5698C39.8751 58.6122 39.9997 58.6353 40.1294 58.6353C40.7227 58.6353 41.2036 58.094 41.2036 57.561ZM48.4714 59.2328C47.8046 59.0377 47.0938 59.5798 47.0938 60.2667C47.0938 60.7472 47.3359 61.0988 47.7836 61.2704C47.8075 61.2784 47.8306 61.2872 47.8549 61.2948L53.375 63.1524C53.9381 63.3408 54.5478 63.0374 54.7362 62.4743C54.9246 61.9112 54.6208 61.3015 54.0577 61.1131L48.4714 59.2328ZM44.1237 57.8518C43.5308 57.8518 43.0495 58.3327 43.0495 58.926C43.0495 59.5194 43.5308 60.0003 44.1237 60.0003C44.7171 60.0003 45.1979 59.5194 45.1979 58.926C45.1979 58.3327 44.7171 57.8518 44.1237 57.8518ZM51.6646 33.4004C51.6764 32.8071 52.1669 32.3354 52.7602 32.3472C53.3536 32.3585 53.8252 32.849 53.8135 33.4424C53.8135 33.4546 53.7686 34.7877 54.2469 36.7045C54.2797 36.6894 54.3116 36.6743 54.3434 36.6583C55.1718 36.2484 55.8432 35.5228 56.1616 34.58C56.4814 33.6337 56.387 32.6468 55.9762 31.8168C55.5658 30.9885 54.8407 30.3171 53.8978 29.9986C52.9512 29.6789 51.9646 29.7733 51.1346 30.1845C50.3063 30.5945 49.6349 31.3195 49.3165 32.2628C48.9967 33.2095 49.0911 34.196 49.5019 35.026C49.9123 35.8543 50.6374 36.5257 51.5803 36.8442C51.7569 36.9038 51.9349 36.9487 52.1128 36.9802C51.6164 34.8716 51.6642 33.4134 51.6646 33.4004V33.4004ZM54.9103 38.7618C56.1444 41.8607 58.7612 45.6234 64.3005 48.053L65.6781 43.96C65.8015 43.5958 65.8724 43.2169 65.8841 42.8342C65.895 42.462 65.851 42.0756 65.7452 41.6857L62.6384 28.1057C62.5079 27.3861 62.2142 26.7449 61.7346 26.1902C61.2919 25.6778 60.7115 25.2737 60.025 25.0417L52.0247 22.3574C51.4154 22.1522 50.7608 22.0989 50.1213 22.2051C49.9627 22.2315 48.7563 22.6843 48.387 22.9621L37.6243 31.9188C36.8853 32.398 36.3256 33.1184 36.044 33.9526L27.1939 60.1627C26.8469 61.1907 26.9497 62.2628 27.3957 63.1642C27.8414 64.0642 28.6294 64.794 29.6541 65.1401L51.866 72.6399C52.8941 72.9869 53.9662 72.8846 54.868 72.4381C55.7672 71.9925 56.4969 71.2053 56.8431 70.181L63.6094 50.1024C57.0903 47.3136 54.1261 42.8141 52.7795 39.1873C50.5883 39.2024 48.5557 37.9642 47.5721 35.9781C46.1597 33.1256 47.3304 29.6667 50.1821 28.2547C53.0347 26.8423 56.4936 28.013 57.9056 30.8647C58.5597 32.1856 58.7095 33.7558 58.201 35.2627C57.6911 36.7733 56.6182 37.9335 55.2956 38.5881C55.1697 38.6507 55.0413 38.7086 54.9103 38.7618V38.7618ZM38.1287 45.0565L57.3059 51.511C57.8691 51.6994 58.4783 51.3956 58.6667 50.8325C58.8552 50.2694 58.5518 49.6601 57.9882 49.4717L38.8114 43.0172C38.2483 42.8288 37.639 43.1321 37.4506 43.6953C37.2622 44.2584 37.5655 44.8681 38.1287 45.0565V45.0565ZM36.1632 50.877L55.3405 57.3315C55.9036 57.5203 56.5129 57.2165 56.7013 56.6534C56.8897 56.0903 56.5859 55.481 56.0227 55.2926L36.8459 48.8381C36.2828 48.6492 35.6735 48.953 35.4851 49.5162C35.2967 50.0793 35.6001 50.6886 36.1632 50.877V50.877Z" fill="black"/>
</g>
<defs>
<clipPath id="clip0_5_2">
<rect width="54.9998" height="55" fill="white" transform="translate(20 20)"/>
</clipPath>
</defs>
</svg>
