<svg width="94" height="94" viewBox="0 0 94 94" fill="none" xmlns="http://www.w3.org/2000/svg">
<circle cx="47" cy="47" r="47" fill="#F9D500"/>
<path d="M62.606 27.206H57.6302V24.98C57.6302 24.2598 56.8446 23.9325 56.1244 23.9325H52.2616C51.3451 21.3137 49.0535 20.0042 46.4347 20.0042C43.8447 19.9069 41.4889 21.495 40.6078 23.9325H36.8104C36.0902 23.9325 35.3701 24.2598 35.3701 24.98V27.206H30.3941C27.4455 27.2375 25.0331 29.5636 24.8945 32.5091V70.0241C24.8945 72.9048 27.5134 74.9999 30.3941 74.9999H62.606C65.4867 74.9999 68.1056 72.9048 68.1056 70.0241V32.5093C67.967 29.5636 65.5546 27.2375 62.606 27.206ZM37.9888 26.5514H41.5897C42.2183 26.4747 42.7232 25.9965 42.8337 25.3729C43.2215 23.6844 44.7028 22.4723 46.4347 22.4267C48.1505 22.4787 49.6096 23.6945 49.9701 25.3729C50.0875 26.018 50.6258 26.5024 51.2795 26.5514H55.0114V31.7891H37.9888V26.5514ZM65.4867 70.0242C65.4867 71.4646 64.0463 72.3811 62.606 72.3811H30.3941C28.9538 72.3811 27.5134 71.4646 27.5134 70.0242V32.5093C27.647 31.01 28.8891 29.8524 30.3941 29.825H35.3699V33.164C35.4391 33.8976 36.0745 34.4464 36.8103 34.408H56.1242C56.8736 34.449 57.5289 33.9078 57.63 33.164V29.8249H62.6058C64.1107 29.8524 65.353 31.0099 65.4866 32.5091V70.0242H65.4867Z" fill="black"/>
<path d="M41.4588 49.2699C40.9677 48.7522 40.1524 48.723 39.6256 49.2045L35.4354 53.1982L33.6677 51.3649C33.1766 50.8473 32.3613 50.8182 31.8345 51.2995C31.3273 51.8309 31.3273 52.6669 31.8345 53.1982L34.5187 55.948C34.7511 56.2082 35.0867 56.352 35.4353 56.3409C35.7807 56.336 36.1101 56.1947 36.3519 55.948L41.4586 51.1032C41.9649 50.6387 41.9987 49.8518 41.5342 49.3456C41.5103 49.3192 41.4852 49.294 41.4588 49.2699Z" fill="black"/>
<path d="M60.2491 52.0851H45.1908C44.4676 52.0851 43.8813 52.6713 43.8813 53.3945C43.8813 54.1177 44.4676 54.7039 45.1908 54.7039H60.2491C60.9723 54.7039 61.5585 54.1177 61.5585 53.3945C61.5585 52.6713 60.9723 52.0851 60.2491 52.0851Z" fill="black"/>
<path d="M41.4588 38.7945C40.9677 38.2768 40.1524 38.2476 39.6256 38.729L35.4354 42.7227L33.6677 40.8895C33.1766 40.3718 32.3613 40.3426 31.8345 40.8241C31.3273 41.3554 31.3273 42.1914 31.8345 42.7227L34.5187 45.4725C34.7511 45.7327 35.0867 45.8766 35.4353 45.8654C35.7807 45.8605 36.1101 45.7193 36.3519 45.4725L41.4586 40.6277C41.9649 40.1633 41.9987 39.3763 41.5342 38.8701C41.5103 38.8437 41.4852 38.8185 41.4588 38.7945Z" fill="black"/>
<path d="M60.2491 41.6097H45.1908C44.4676 41.6097 43.8813 42.1959 43.8813 42.9191C43.8813 43.6423 44.4676 44.2285 45.1908 44.2285H60.2491C60.9723 44.2285 61.5585 43.6423 61.5585 42.9191C61.5585 42.1959 60.9723 41.6097 60.2491 41.6097Z" fill="black"/>
<path d="M41.4588 59.7452C40.9677 59.2275 40.1524 59.1984 39.6256 59.6797L35.4354 63.6734L33.6677 61.8402C33.1766 61.3225 32.3613 61.2934 31.8345 61.7748C31.3273 62.3061 31.3273 63.1421 31.8345 63.6734L34.5187 66.4232C34.7511 66.6834 35.0867 66.8273 35.4353 66.8161C35.7807 66.8112 36.1101 66.67 36.3519 66.4232L41.4586 61.5784C41.9649 61.114 41.9987 60.327 41.5342 59.8208C41.5103 59.7945 41.4852 59.7693 41.4588 59.7452Z" fill="black"/>
<path d="M60.2491 62.5605H45.1908C44.4676 62.5605 43.8813 63.1468 43.8813 63.87C43.8813 64.5932 44.4676 65.1794 45.1908 65.1794H60.2491C60.9723 65.1794 61.5585 64.5932 61.5585 63.87C61.5585 63.1468 60.9723 62.5605 60.2491 62.5605Z" fill="black"/>
</svg>
