<svg width="94" height="94" viewBox="0 0 94 94" fill="none" xmlns="http://www.w3.org/2000/svg">
<circle cx="47" cy="47" r="47" fill="#F9D500"/>
<g clip-path="url(#clip0_5_5)">
<path d="M65.0883 62.6427L47.1045 56.738C47.2007 55.5059 46.6632 54.3091 45.6781 53.5626C44.6935 52.8161 43.396 52.6223 42.2355 53.0479L29.6783 42.1973C29.4715 42.0183 29.1958 41.9413 28.9264 41.9865C28.657 42.0317 28.4215 42.1951 28.285 42.4318L26.8734 44.8835C24.3595 43.9441 21.535 44.9596 20.195 47.2851L19.7367 48.0782C19.0036 49.3479 18.808 50.8585 19.1933 52.2736C19.5791 53.6884 20.5136 54.891 21.7901 55.6133L35.7843 62.7868C35.5274 63.865 35.7714 65.0013 36.4481 65.8794L33.5618 70.8787C33.3765 71.1996 33.4024 71.6006 33.6285 71.8951C33.854 72.1891 34.2349 72.3185 34.5929 72.2222L37.4645 71.4524L38.2338 74.324C38.3296 74.6816 38.6313 74.9461 38.9983 74.9949C39.0381 75.0003 39.0779 75.0029 39.1182 75.0034C39.4458 75.0034 39.7488 74.8288 39.9131 74.5451L43.8655 67.6988L53.5014 73.9234C54.7653 74.6534 56.2678 74.8512 57.6776 74.473C59.0874 74.0948 60.2891 73.1715 61.0177 71.9067L61.476 71.1141L65.6007 63.9693C65.7386 63.7298 65.7614 63.4416 65.663 63.1833C65.564 62.9256 65.3541 62.7259 65.0919 62.64L65.0883 62.6427ZM44.373 54.8959C45.2493 55.4021 45.5496 56.5232 45.043 57.4L40.9183 64.5493C40.409 65.4189 39.2932 65.7138 38.4205 65.2099C37.5477 64.7059 37.2452 63.592 37.7433 62.7161L41.868 55.5722C42.1101 55.1488 42.5112 54.839 42.9824 54.7124C43.4533 54.5853 43.9554 54.6515 44.3775 54.8959H44.373ZM29.3225 44.3089L38.5015 52.2432L28.4784 45.7702L29.3225 44.3089ZM20.9576 51.7773C20.7038 50.8379 20.8359 49.8362 21.3242 48.9948L21.7825 48.2017C22.7859 46.463 25.0004 45.8543 26.7513 46.8362L39.8974 55.3255L36.5537 61.1183L22.665 54.003C21.8214 53.5192 21.2064 52.7176 20.9576 51.7773ZM39.4306 71.7116L38.9983 70.0928C38.8671 69.604 38.3645 69.3136 37.8753 69.4451L36.2556 69.8784L37.9147 67.0059C39.2203 67.5578 40.7276 67.3031 41.779 66.3525L42.3227 66.7025L39.4306 71.7116ZM54.4574 72.3597L42.8553 64.8648L46.2917 58.9132L58.5427 65.1956C60.2963 66.208 60.8973 68.4502 59.885 70.2038L59.4267 70.9968C58.4223 72.7343 56.2078 73.342 54.4574 72.3597ZM61.9205 66.677C61.5047 65.3683 60.6127 64.2642 59.4208 63.5826L54.6892 61.1626L63.4448 64.0368L61.9205 66.677Z" fill="black"/>
<path d="M72.8128 30.0899L73.95 26.5757C74.0888 26.146 73.8945 25.6792 73.4917 25.4756L70.2057 23.7963L68.5256 20.5068C68.322 20.104 67.8552 19.9093 67.4255 20.0485L63.9122 21.1897L60.397 20.052C59.9678 19.9133 59.501 20.1075 59.2974 20.5103L57.619 23.7963L54.3295 25.4765C54.3147 25.4845 54.3044 25.4984 54.2901 25.5069H38.2473C35.7177 25.5096 33.6674 27.5598 33.6643 30.0899V42.6932C33.6643 43.1994 34.0747 43.6098 34.5809 43.6098C35.0875 43.6098 35.4975 43.1994 35.4975 42.6932V30.0899C35.4975 28.5709 36.7287 27.3401 38.2473 27.3401H54.1223L55.012 30.0899L53.8748 33.6041C53.7356 34.0333 53.9303 34.5001 54.3331 34.7038L57.6226 36.3839L59.3028 39.6735C59.5064 40.0763 59.9732 40.271 60.4029 40.1318L63.9122 38.9901L64.8288 39.2868V59.4211C64.8288 59.9273 65.2392 60.3377 65.7454 60.3377C66.252 60.3377 66.662 59.9273 66.662 59.4211V39.8798L67.4277 40.1273C67.857 40.2665 68.3238 40.0718 68.5274 39.669L70.2075 36.3794L73.4971 34.6993C73.8999 34.4957 74.0946 34.0289 73.9554 33.5992L72.8128 30.0899ZM70.9796 30.3719L71.9673 33.4251L69.1097 34.8855C68.9378 34.9732 68.7982 35.1133 68.7109 35.2852L67.2487 38.1428L64.1946 37.1551C64.0115 37.0951 63.8142 37.0951 63.6311 37.1551L60.577 38.1428L59.1166 35.2852C59.0288 35.1129 58.8892 34.9732 58.7169 34.8855L55.8592 33.4251L56.847 30.3719C56.9079 30.1888 56.9079 29.9905 56.847 29.8075L55.8592 26.7542L58.7169 25.2938C58.8892 25.2061 59.0288 25.0665 59.1166 24.8946L60.577 22.0365L63.6311 23.0247C63.8142 23.0842 64.0115 23.0842 64.1946 23.0247L67.2487 22.0365L68.7091 24.8946C68.7964 25.066 68.936 25.2061 69.1079 25.2938L71.9656 26.7542L70.9773 29.8075C70.9183 29.991 70.9183 30.1884 70.9773 30.3719H70.9796Z" fill="black"/>
<path d="M63.9121 25.507C61.3812 25.507 59.3291 27.5586 59.3291 30.09C59.3291 32.6209 61.3812 34.673 63.9121 34.673C66.4435 34.673 68.4951 32.6209 68.4951 30.09C68.4924 27.5599 66.4422 25.5096 63.9121 25.507ZM63.9121 32.8398C62.3935 32.8398 61.1623 31.6085 61.1623 30.09C61.1623 28.5709 62.3935 27.3402 63.9121 27.3402C65.4311 27.3402 66.6619 28.5709 66.6619 30.09C66.6619 31.6085 65.4311 32.8398 63.9121 32.8398Z" fill="black"/>
<path d="M41.9137 43.8389H57.4959C58.0025 43.8389 58.4125 43.4285 58.4125 42.9223C58.4125 42.4161 58.0025 42.0057 57.4959 42.0057H41.9137C41.4075 42.0057 40.9971 42.4161 40.9971 42.9223C40.9971 43.4285 41.4075 43.8389 41.9137 43.8389Z" fill="black"/>
<path d="M57.4958 46.5887H44.6634C44.1572 46.5887 43.7468 46.9992 43.7468 47.5053C43.7468 48.0115 44.1572 48.422 44.6634 48.422H57.4958C58.0025 48.422 58.4124 48.0115 58.4124 47.5053C58.4124 46.9992 58.0025 46.5887 57.4958 46.5887Z" fill="black"/>
<path d="M57.4959 51.1718H51.0797C50.5735 51.1718 50.1631 51.5822 50.1631 52.0884C50.1631 52.5946 50.5735 53.005 51.0797 53.005H57.4959C58.0025 53.005 58.4125 52.5946 58.4125 52.0884C58.4125 51.5822 58.0025 51.1718 57.4959 51.1718Z" fill="black"/>
<path d="M43.7469 34.6729H49.2465C49.7531 34.6729 50.1631 34.2625 50.1631 33.7563C50.1631 33.2501 49.7531 32.8397 49.2465 32.8397H43.7469C42.2283 32.8397 40.9971 34.0705 40.9971 35.5895C40.9971 37.1081 42.2283 38.3393 43.7469 38.3393H49.2465C49.7531 38.3393 50.1631 37.9289 50.1631 37.4227C50.1631 36.9165 49.7531 36.5061 49.2465 36.5061H43.7469C43.2407 36.5061 42.8303 36.0957 42.8303 35.5895C42.8303 35.0833 43.2407 34.6729 43.7469 34.6729Z" fill="black"/>
</g>
<defs>
<clipPath id="clip0_5_5">
<rect width="55" height="55" fill="white" transform="translate(19 20)"/>
</clipPath>
</defs>
</svg>
