<svg width="94" height="94" viewBox="0 0 94 94" fill="none" xmlns="http://www.w3.org/2000/svg">
<circle cx="47" cy="47" r="47" fill="#F9D500"/>
<path d="M44.5274 46.7187L44.6914 46.5547C44.8321 46.4258 44.9024 46.25 44.9141 46.0625C44.9141 45.875 44.8438 45.6992 44.7149 45.5586C44.4453 45.2773 44 45.2656 43.7188 45.5352L43.5313 45.7109C42.3242 46.8711 40.4375 46.8711 39.2305 45.7109L39.0664 45.5469C38.9258 45.4063 38.7383 45.3359 38.5625 45.3359C38.3867 45.3359 38.211 45.4062 38.0703 45.5352C37.7891 45.8047 37.7891 46.25 38.0586 46.5312L38.2344 46.707C39.9571 48.4531 42.7813 48.4531 44.5274 46.7187Z" fill="black"/>
<path d="M49.8125 34.1094H43.9531V32.9375C43.9531 32.5508 43.6367 32.2344 43.25 32.2344H39.5C39.1133 32.2344 38.7969 32.5508 38.7969 32.9375V34.1094H32.9375C32.5508 34.1094 32.2344 34.4258 32.2344 34.8125C32.2344 35.1992 32.5508 35.5156 32.9375 35.5156H39.5C39.8867 35.5156 40.2031 35.1992 40.2031 34.8125V33.6406H42.5469V34.8125C42.5469 35.1992 42.8633 35.5156 43.25 35.5156H49.8125C50.1992 35.5156 50.5156 35.1992 50.5156 34.8125C50.5156 34.4258 50.1992 34.1094 49.8125 34.1094Z" fill="black"/>
<path d="M59.8906 62.9375C59.8789 58.4258 56.1992 54.7461 51.6875 54.7344H45.8281V51.3477L45.957 51.2773C49.0859 49.6719 51.1367 46.6133 51.418 43.1094L51.4297 42.9453L51.5938 42.9102C53.1641 42.5234 54.2656 41.1289 54.2656 39.5117V39.2773H54.5C55.918 39.2773 57.0781 38.1172 57.0781 36.6992C57.0781 35.2812 55.918 34.1211 54.5 34.1211H54.2656V33.8867C54.2773 31.0859 53.3867 28.4141 51.7109 26.1641C50.0352 23.9141 47.7148 22.3203 45.0195 21.5352L44.8789 21.4883L44.8555 21.3359C44.6797 20.0703 43.5781 19.1094 42.3125 19.1094H40.4375C39.1719 19.1094 38.0703 20.0703 37.8945 21.3242L37.8711 21.4766L37.7305 21.5234C35.0352 22.3086 32.7266 23.9141 31.0391 26.1523C29.3633 28.4023 28.4727 31.0742 28.4844 33.875V34.1094H28.25C26.832 34.1094 25.6719 35.2695 25.6719 36.6875C25.6719 38.1055 26.832 39.2656 28.25 39.2656H28.4844V39.5C28.4844 41.1172 29.5859 42.5117 31.1562 42.8984L31.3203 42.9336L31.332 43.0977C31.6133 46.6133 33.6641 49.6602 36.793 51.2656L36.9219 51.3359V54.7344H31.0625C26.5508 54.7461 22.8711 58.4258 22.8594 62.9375V74.1875C22.8594 74.5742 23.1758 74.8906 23.5625 74.8906H59.1875C59.5742 74.8906 59.8906 74.5742 59.8906 74.1875V62.9375ZM30.3594 73.4844H24.2656V62.9375C24.2656 61.3086 24.8633 59.7266 25.9297 58.4961C26.9961 57.2656 28.4727 56.457 30.0898 56.2227L30.3594 56.1875V73.4844ZM51.8047 41.3281L51.4531 41.5273V39.2656H52.8594V39.5C52.8594 40.25 52.4609 40.9531 51.8047 41.3281ZM31.2969 41.5273L30.9453 41.3281C30.2891 40.9531 29.8906 40.25 29.8906 39.5V39.2656H31.2969V41.5273ZM28.25 37.8594C27.6055 37.8594 27.0781 37.332 27.0781 36.6875C27.0781 36.043 27.6055 35.5156 28.25 35.5156H28.4844V35.75C28.4844 36.1367 28.8008 36.4531 29.1875 36.4531C29.5742 36.4531 29.8906 36.1367 29.8906 35.75V33.875C29.8789 30.1836 31.6719 26.6914 34.6719 24.5469L35.0469 24.2773V27.3125C35.0469 27.6992 35.3633 28.0156 35.75 28.0156C36.1367 28.0156 36.4531 27.6992 36.4531 27.3125V23.4922L36.5938 23.4336C36.8867 23.293 37.2031 23.1758 37.5547 23.0469L37.8711 22.9414V29.1875C37.8711 29.5742 38.1875 29.8906 38.5742 29.8906C38.9609 29.8906 39.2773 29.5742 39.2773 29.1875V21.6875C39.2773 21.043 39.8047 20.5156 40.4492 20.5156H42.3242C42.9688 20.5156 43.4961 21.043 43.4961 21.6875V29.1875C43.4961 29.5742 43.8125 29.8906 44.1992 29.8906C44.5859 29.8906 44.9023 29.5742 44.9023 29.1875V22.9414L45.2188 23.0469C45.5586 23.1641 45.875 23.293 46.1797 23.4336L46.3203 23.4922V27.3125C46.3203 27.6992 46.6367 28.0156 47.0234 28.0156C47.4102 28.0156 47.7266 27.6992 47.7266 27.3125V24.2773L48.1016 24.5469C51.1133 26.6914 52.8945 30.1836 52.8828 33.875V35.75C52.8828 36.1367 53.1992 36.4531 53.5859 36.4531C53.9727 36.4531 54.2891 36.1367 54.2891 35.75V35.5156H54.5234C55.168 35.5156 55.6953 36.043 55.6953 36.6875C55.6953 37.332 55.168 37.8594 54.5234 37.8594H28.25ZM32.7031 42.3125V39.2656H36.6875V39.7344C36.3008 39.7344 35.9844 40.0508 35.9844 40.4375C35.9844 40.8242 36.3008 41.1406 36.6875 41.1406H37.625C38.0117 41.1406 38.3281 40.8242 38.3281 40.4375C38.3281 40.0508 38.0117 39.7344 37.625 39.7344V39.2656H45.125V39.7344C44.7383 39.7344 44.4219 40.0508 44.4219 40.4375C44.4219 40.8242 44.7383 41.1406 45.125 41.1406H46.0625C46.4492 41.1406 46.7656 40.8242 46.7656 40.4375C46.7656 40.0508 46.4492 39.7344 46.0625 39.7344V39.2656H50.0469V42.3125C50.0469 47.0938 46.1562 50.9844 41.375 50.9844C36.5938 50.9844 32.7031 47.0938 32.7031 42.3125ZM44.4219 51.9102V55.4375C44.4219 57.1133 43.0508 58.4844 41.375 58.4844C39.6992 58.4844 38.3281 57.1133 38.3281 55.4375V51.9102L38.6328 51.9922C40.4258 52.5195 42.3242 52.5195 44.1289 51.9922L44.4219 51.9102ZM35.5156 56.1406H36.9687L37.0039 56.3281C37.4961 58.7305 39.8516 60.2891 42.2539 59.8086C44.0117 59.457 45.3711 58.0859 45.7344 56.3281L45.7695 56.1406H47.2344V64.1094H35.5156V56.1406ZM47.2344 73.4844H35.5156V69.2656H47.2344V73.4844ZM50.9844 73.4844H48.6406V68.5625C48.6406 68.1758 48.3242 67.8594 47.9375 67.8594H34.8125C34.4258 67.8594 34.1094 68.1758 34.1094 68.5625V73.4844H31.7656V56.1406H34.1094V64.8125C34.1094 65.1992 34.4258 65.5156 34.8125 65.5156H47.9375C48.3242 65.5156 48.6406 65.1992 48.6406 64.8125V56.1406H50.9844V73.4844ZM58.4844 73.4844H52.3906V56.1758L52.6602 56.2109C54.2773 56.4453 55.7539 57.2539 56.8203 58.4844C57.8867 59.7148 58.4844 61.2969 58.4844 62.9258V73.4844Z" fill="black"/>
<path d="M73.0858 53.5625C73.0858 53.2461 73.0272 52.9297 72.9101 52.625L67.6835 39.1836C67.3671 38.3633 66.5819 37.8594 65.7499 37.8594C65.5038 37.8594 65.246 37.9062 65.0116 38C64.4726 38.2109 64.039 38.6445 63.828 39.1836L58.5898 52.625C58.3437 53.2695 58.3554 53.9727 58.6249 54.5937C58.9062 55.2266 59.4101 55.707 60.0546 55.9648C60.3476 56.082 60.664 56.1406 60.9921 56.1406H65.0468V60.3594H64.8124C63.3944 60.3594 62.2343 61.5195 62.2343 62.9375V72.3125C62.2343 73.7305 63.3944 74.8906 64.8124 74.8906H66.6874C68.1054 74.8906 69.2655 73.7305 69.2655 72.3125V62.9375C69.2655 61.5195 68.1054 60.3594 66.6874 60.3594H66.453V56.1406H70.5077C71.9374 56.1406 73.0858 54.9805 73.0858 53.5625ZM66.6874 61.7656C67.3319 61.7656 67.8593 62.293 67.8593 62.9375V72.3125C67.8593 72.957 67.3319 73.4844 66.6874 73.4844H64.8124C64.1679 73.4844 63.6405 72.957 63.6405 72.3125V62.9375C63.6405 62.293 64.1679 61.7656 64.8124 61.7656H66.6874ZM71.4804 54.2188C71.2694 54.5469 70.9061 54.7344 70.5194 54.7344H66.453V49.8125C66.453 49.4258 66.1366 49.1094 65.7499 49.1094C65.3632 49.1094 65.0468 49.4258 65.0468 49.8125V54.7344H60.9921C60.3358 54.7227 59.8202 54.1953 59.8202 53.5391C59.8202 53.3984 59.8437 53.2695 59.8905 53.1406L65.1171 39.6875C65.1874 39.5234 65.3163 39.3945 65.4804 39.3242C65.6444 39.2539 65.8319 39.2539 65.996 39.3242C66.1601 39.3945 66.3007 39.5234 66.3593 39.6875L71.5976 53.1406C71.7499 53.5039 71.6913 53.9023 71.4804 54.2188Z" fill="black"/>
</svg>
