<svg width="23" height="22" viewBox="0 0 23 22" fill="none" xmlns="http://www.w3.org/2000/svg">
<path d="M21.5555 17.4009L18.1503 13.9953C17.472 13.3198 16.3488 13.3403 15.6469 14.0424L13.9313 15.7576C13.8229 15.6979 13.7107 15.6355 13.5928 15.5693C12.5094 14.969 11.0266 14.1463 9.46632 12.5848C7.90138 11.0201 7.07786 9.535 6.47574 8.45093C6.4122 8.33608 6.35133 8.22534 6.29121 8.12019L7.44262 6.97049L8.00869 6.40372C8.71166 5.70056 8.73105 4.57766 8.05437 3.90015L4.64911 0.494138C3.97243 -0.182415 2.84871 -0.161891 2.14574 0.541269L1.18602 1.5065L1.21224 1.53253C0.890437 1.94315 0.621526 2.41674 0.421411 2.92745C0.236942 3.41358 0.122093 3.87748 0.0695778 4.34232C-0.380064 8.06995 1.32336 11.4767 5.94622 16.0997C12.3364 22.4894 17.4861 22.0067 17.7082 21.9831C18.1921 21.9253 18.6558 21.8097 19.127 21.6267C19.6333 21.4289 20.1066 21.1604 20.5169 20.8393L20.5379 20.8579L21.5102 19.9058C22.2117 19.2028 22.2319 18.0795 21.5555 17.4009Z" fill="#F9D500"/>
</svg>
