<svg width="24" height="25" viewBox="0 0 24 25" fill="none" xmlns="http://www.w3.org/2000/svg">
<path d="M23.4619 19.4671L19.7555 15.7603C19.0173 15.025 17.7947 15.0473 17.0307 15.8116L15.1634 17.6785C15.0455 17.6135 14.9233 17.5455 14.795 17.4735C13.6158 16.8201 12.0019 15.9246 10.3035 14.225C8.60019 12.5219 7.70384 10.9055 7.04846 9.72555C6.97931 9.60054 6.91305 9.48002 6.84761 9.36556L8.10085 8.11418L8.71699 7.49729C9.48213 6.73194 9.50323 5.50973 8.76671 4.7723L5.06028 1.06505C4.32376 0.328666 3.10065 0.351005 2.33551 1.11635L1.29091 2.16695L1.31946 2.19529C0.969189 2.64222 0.676495 3.15769 0.458681 3.71357C0.257898 4.2427 0.132891 4.74762 0.0757314 5.25358C-0.413678 9.31088 1.4404 13.019 6.47211 18.0507C13.4275 25.0056 19.0326 24.4802 19.2744 24.4546C19.801 24.3916 20.3057 24.2658 20.8187 24.0666C21.3697 23.8513 21.8848 23.559 22.3315 23.2095L22.3543 23.2298L23.4126 22.1935C24.1761 21.4283 24.1981 20.2057 23.4619 19.4671Z" fill="white"/>
</svg>
