<svg width="37" height="36" viewBox="0 0 37 36" fill="none" xmlns="http://www.w3.org/2000/svg">
<path d="M27.5352 2.72109C24.6735 0.942187 21.3688 0 18.0008 0C8.05862 0.00703124 0.000813851 8.06484 0.0078451 18.007C0.0078451 21.4523 0.99925 24.8203 2.8555 27.7172L0.0500326 34.9804C-0.0976236 35.3672 0.09222 35.8031 0.478939 35.9507C0.563313 35.9859 0.65472 36 0.753157 36C0.837532 36 0.921907 35.9859 1.00628 35.9578L8.50862 33.2789C16.9461 38.5312 28.0484 35.9507 33.3008 27.5133C38.5531 19.0758 35.9727 7.98046 27.5352 2.72109ZM27.0008 23.2523C26.6211 25.439 24.7156 27.0281 22.5008 27C20.1453 27 15.6172 24.1804 13.7188 22.282C11.8203 20.3836 9.00081 15.8555 9.00081 13.5C8.97971 11.2851 10.5688 9.37968 12.7485 8.99999H14.2461C14.5274 8.99999 14.7875 9.16171 14.9141 9.41483C14.9141 9.41483 15.8211 11.25 16.4117 12.4031C17.0797 13.7039 15.8281 15.2367 15.111 15.9539C15.5399 17.0719 16.1938 18.0984 17.0235 18.9633C17.8883 19.7929 18.9149 20.4469 20.0328 20.8758C20.75 20.1586 22.2828 18.907 23.5836 19.575C24.7367 20.1726 26.5719 21.0726 26.5719 21.0726C26.825 21.1992 26.9938 21.4594 26.9938 21.7476V23.2523H27.0008Z" fill="white"/>
</svg>
